<svg width="86" height="62" viewBox="0 0 86 62" fill="none" xmlns="http://www.w3.org/2000/svg">
<path d="M20.9546 0.310201C20.2571 1.0077 20.6704 1.73103 23.4863 4.52103C25.0621 6.07103 26.3279 7.54353 26.3279 7.7502C26.3279 7.9827 23.9513 10.5402 21.0321 13.4594C18.1129 16.3527 15.6588 18.936 15.5813 19.1685C15.3488 19.9177 15.7363 20.6669 16.4338 20.8219C17.0021 20.9769 17.5963 20.486 21.7813 16.301C24.3646 13.7435 26.5604 11.6252 26.6638 11.6252C26.7671 11.6252 27.2838 12.0127 27.7746 12.5035C28.2654 12.9944 29.3763 13.6402 30.2804 13.9502C32.0629 14.596 34.3363 15.7585 34.3363 15.991C34.3363 16.0944 33.1738 17.3085 31.7271 18.7294C30.3063 20.1502 28.8854 21.7777 28.5754 22.346C27.1546 25.0585 28.5238 28.391 31.4688 29.3985C33.4063 30.0702 34.8271 29.6052 37.5913 27.3835L39.8129 25.5752H41.6471H43.4813L45.8579 27.9002C48.2604 30.2769 48.9063 30.5869 49.6813 29.8119C50.3788 29.1144 50.1463 28.5977 48.4154 26.8669C47.1754 25.6269 46.7363 25.0327 46.7363 24.516C46.7363 23.1469 46.2713 22.9919 42.4738 22.9919H39.0121L36.9971 24.671C35.8863 25.601 34.6204 26.531 34.1813 26.7635C32.3213 27.7194 30.2546 26.3244 30.5646 24.2835C30.6679 23.586 31.2879 22.8369 33.4838 20.6152L36.2738 17.8252H42.9904H49.7071L52.2129 19.246C56.0104 21.3644 55.5713 21.4419 58.8779 18.2127L61.7196 15.4485L66.5763 20.0727C69.2371 22.6302 72.2854 25.5235 73.3446 26.531L75.2821 28.391L74.1971 29.5019C73.0604 30.6644 72.7763 31.6202 73.3963 32.2402C73.9646 32.8085 74.7396 32.5502 75.9538 31.3619C77.0388 30.3027 77.2196 30.1994 77.7363 30.4835C78.9504 31.1294 79.9579 30.6127 82.8254 27.8227C84.2979 26.4019 85.5638 24.9552 85.6413 24.6194C85.8221 23.9219 85.1504 22.9919 84.4788 22.9919C84.2463 22.9919 82.8771 24.1802 81.4304 25.6269L78.7954 28.2619L76.9096 26.4794C75.8763 25.4977 73.8096 23.5085 72.3113 22.0877C70.8129 20.6669 68.3329 18.2644 66.7571 16.766C65.2071 15.2677 63.4504 13.6144 62.8821 13.0977L61.8488 12.1677L67.0929 6.8977C69.9604 4.00437 72.3113 1.49853 72.3113 1.3177C72.3113 0.594368 71.7429 0.000201145 71.0713 0.000201145C70.5029 0.000201145 69.3663 1.0077 65.0004 5.37353C60.4796 9.89437 59.6271 10.876 59.4979 11.651C59.3946 12.1935 59.4721 12.8394 59.6529 13.1752C59.9371 13.7177 59.8596 13.8727 58.4646 15.216C57.6121 15.991 56.5788 16.9727 56.1138 17.386L55.2871 18.1094L52.8846 16.7402L50.4821 15.371L43.7913 15.2935L37.1004 15.216L35.8346 14.0794C34.9563 13.3044 33.8454 12.6585 32.1663 12.0127C30.7713 11.4702 29.4796 10.7727 29.0663 10.3594C28.4463 9.71353 28.4204 9.58437 28.6788 8.8352C29.2729 7.1302 28.8596 6.3552 25.6304 3.04853C23.3054 0.671868 22.4788 0.000201145 21.9363 0.000201145C21.5746 0.000201145 21.1354 0.129368 20.9546 0.310201Z" fill="#fff"/>
<path d="M0.288617 18.1349C-0.434716 18.8582 0.0302837 19.5557 3.67278 23.1724C5.68778 25.1616 7.59945 26.9441 7.90945 27.0991C8.21945 27.2541 8.86528 27.3832 9.33028 27.3832C10.0794 27.3832 10.5444 27.7191 12.8436 30.044L15.4786 32.679V34.4874C15.5044 36.554 15.8661 37.7682 16.8478 39.0599C17.4936 39.8865 17.5194 40.0157 17.1319 40.2999C15.8661 41.359 15.5819 44.2524 16.5894 45.7507C17.2353 46.7065 18.9144 47.7915 19.7669 47.7915C20.2061 47.7915 20.3611 47.9982 20.4903 48.799C20.7486 50.4782 22.5569 52.1832 24.0553 52.1832C24.5719 52.1832 24.7269 52.3899 24.9853 53.3715C25.3986 54.9474 26.6644 56.2132 28.2403 56.6265C29.2736 56.9107 29.4286 57.0399 29.4286 57.634C29.4286 59.339 31.5986 61.2249 33.5878 61.2249C35.3186 61.2249 35.9644 60.9149 37.7211 59.2357L39.2453 57.789L41.0019 59.4682C43.0428 61.4574 44.0244 61.9999 45.4453 61.9999C47.5378 61.9999 49.2428 60.7082 49.8628 58.6674C50.1211 57.8407 50.3278 57.634 51.1544 57.3757C52.9369 56.8332 54.4869 55.1024 54.4869 53.6557C54.4869 53.1132 54.6419 53.0099 55.5719 52.8549C57.0703 52.6224 58.8011 50.8915 59.0336 49.3932C59.1886 48.4374 59.2919 48.3082 59.9119 48.3082C60.7128 48.3082 62.1078 47.4299 62.8053 46.474C63.0894 46.1124 63.4253 45.3115 63.5544 44.6657C63.7869 43.684 64.3036 43.0124 67.8169 39.499C69.9869 37.3032 71.7953 35.3657 71.7953 35.2107C71.7953 35.0557 71.5886 34.6682 71.3303 34.3582C70.9686 33.919 70.6844 33.8157 70.2194 33.919C69.8836 34.0224 68.0236 35.6499 66.1119 37.5874L62.6244 41.0749L57.7936 36.244C53.1436 31.594 52.9369 31.4132 52.2394 31.6715C51.7228 31.8524 51.4903 32.1107 51.4386 32.6532C51.3611 33.2732 51.9294 33.9707 56.2694 38.3365C58.9819 41.0749 61.2036 43.5032 61.2036 43.7357C61.2036 45.1307 59.7828 46.2157 58.5944 45.7507C58.2586 45.6215 56.7603 44.2782 55.2619 42.7799C52.6011 40.0674 51.8778 39.654 51.1803 40.3515C50.4053 41.1265 50.8444 41.9274 53.7119 44.8207C56.1144 47.2749 56.5536 47.8432 56.5536 48.5149C56.5536 49.5999 55.7528 50.3749 54.6678 50.3749C53.9444 50.3749 53.4536 49.9874 50.9994 47.5332C48.1319 44.6399 47.3311 44.2007 46.5303 45.0015C45.8328 45.699 46.2719 46.3965 49.0361 49.2124C51.6711 51.8732 52.0069 52.364 51.9294 53.5265C51.8778 54.1982 50.8444 55.0249 50.0436 55.0249C49.4494 55.0249 48.7003 54.4307 46.2719 52.054C44.6186 50.4265 43.0428 49.0832 42.8103 49.0832C42.3969 49.0832 41.5703 49.9874 41.5703 50.4524C41.5703 50.5815 42.9136 52.054 44.5411 53.7332C47.7961 57.0399 48.1061 57.7632 46.9436 58.8224C45.6519 59.959 44.7219 59.6749 42.5261 57.4274L41.0278 55.9032L41.3378 54.7407C41.7511 53.1907 41.4669 51.8474 40.4853 50.7365C39.5294 49.6515 38.4961 49.0832 37.4886 49.0832C36.8428 49.0832 36.7136 48.954 36.4294 48.0757C36.0936 46.939 34.8536 45.544 34.0011 45.3115C33.4844 45.2082 33.4328 45.0274 33.4328 43.5549C33.4328 42.2632 33.3036 41.7465 32.7869 40.9974C31.8569 39.6024 30.2553 38.9049 28.5244 39.1115C27.2844 39.2407 27.1294 39.2149 26.9744 38.7499C26.7161 37.9232 24.8561 36.5024 23.7969 36.3215C22.5569 36.1407 21.1361 36.5282 20.1544 37.329C19.7411 37.6907 19.3278 37.9749 19.2503 37.9749C19.1469 37.9749 18.8628 37.5874 18.5786 37.1224C18.1653 36.4765 18.0619 35.8307 18.0619 33.9965V31.6974L15.1686 28.7524L12.2753 25.8332L13.2311 24.8516C14.2644 23.7924 14.3936 23.2499 13.7736 22.6299C13.1019 21.9324 12.4044 22.1649 10.9836 23.5082C10.2344 24.2057 9.45945 24.7999 9.25278 24.7999C9.04612 24.7999 7.31528 23.2241 5.40362 21.3124C1.86445 17.7732 1.11528 17.3082 0.288617 18.1349ZM24.1844 39.3182C24.5719 39.6799 24.7786 40.1707 24.7786 40.7132C24.7786 41.4365 24.4686 41.8757 22.9444 43.3999C21.4203 44.8982 20.9553 45.2082 20.2578 45.2082C19.6378 45.2082 19.2503 45.0274 18.8628 44.5365C17.9069 43.3224 18.2169 42.6249 20.6711 40.3515C22.5828 38.6207 23.2286 38.414 24.1844 39.3182ZM30.4619 42.1082C30.7719 42.4182 30.9786 42.9607 30.9786 43.4774C30.9786 44.2007 30.6169 44.6657 28.3436 46.939C26.8711 48.3857 25.3986 49.6515 25.0369 49.729C24.0036 49.9874 22.9703 49.0315 22.9703 47.8432C22.9703 47.0165 23.2286 46.6549 25.6311 44.2524C27.9044 41.979 28.4211 41.5915 29.1186 41.5915C29.6094 41.5915 30.1519 41.7982 30.4619 42.1082ZM33.5619 48.0499C33.8719 48.3599 34.0786 48.9024 34.0786 49.3932C34.0786 50.0649 33.7428 50.5557 32.0636 52.2349C29.8161 54.4824 29.0928 54.7149 28.0078 53.604C26.8969 52.519 27.1294 51.7957 29.3769 49.5482C31.0561 47.869 31.5469 47.5332 32.2186 47.5332C32.7094 47.5332 33.2519 47.7399 33.5619 48.0499ZM38.4703 52.1832C39.5036 53.2165 39.1678 54.1207 36.9978 56.3682C35.8869 57.5049 34.7244 58.5382 34.4144 58.6674C33.1744 59.1324 31.5211 57.7374 31.8569 56.4974C31.9344 56.1874 32.9678 54.9474 34.1303 53.7849C35.9386 52.0024 36.4036 51.6665 37.1011 51.6665C37.6178 51.6665 38.1603 51.8732 38.4703 52.1832Z" fill="#fff"/>
</svg>
