<svg xmlns="http://www.w3.org/2000/svg">
	<symbol id="arrow" viewBox="0 0 16 31">
		<path fill-rule="evenodd" clip-rule="evenodd"
			d="M15.0711 24.3431L8.70716 30.7071C8.31663 31.0976 7.68347 31.0976 7.29294 30.7071L0.928984 24.3431C0.538459 23.9526 0.538459 23.3195 0.928984 22.9289C1.31951 22.5384 1.95267 22.5384 2.3432 22.9289L7.00005 27.5858L7.00005 -3.65602e-07L9.00005 -2.78178e-07L9.00005 27.5858L13.6569 22.9289C14.0474 22.5384 14.6806 22.5384 15.0711 22.9289C15.4616 23.3195 15.4616 23.9526 15.0711 24.3431Z" />
	</symbol>

	<symbol id="material" viewBox="0 0 74 74">
		<path
			d="M33.0469 1.85013C31.0956 2.86383 25.6723 5.70219 21.0093 8.10972C0.152404 18.9563 0.380486 18.8296 0.127062 19.5645C-0.0756779 20.0967 -0.024993 20.3755 0.304459 20.7303C0.532541 20.9837 3.80172 22.783 7.57775 24.7344C11.3284 26.6604 14.3695 28.3583 14.3442 28.4851C14.2935 28.5864 11.151 30.3351 7.32432 32.3118C0.228432 36.0118 -0.354445 36.4426 0.127062 37.507C0.279117 37.8618 2.86405 39.3316 7.32432 41.6631C11.151 43.6652 14.2935 45.4138 14.3442 45.5152C14.3695 45.6419 11.4551 47.2638 7.83117 49.1392C4.2072 50.9892 0.963363 52.7378 0.608569 53.0166C-0.126363 53.5994 -0.20239 54.233 0.431171 54.9426C0.659254 55.2214 5.75309 57.9837 11.7593 61.0755C17.7654 64.1672 23.5688 67.2083 24.6839 67.7912C32.6668 72.0234 36.7976 74.0508 37.2538 73.9241C38.2675 73.6453 73.1134 55.4241 73.5442 54.9426C74.1524 54.233 74.0764 53.5994 73.3414 53.0166C72.9866 52.7378 69.7428 50.9892 66.1188 49.1138C62.4949 47.2638 59.5805 45.6419 59.6058 45.5152C59.6565 45.4138 62.799 43.6652 66.6257 41.6885C73.7469 37.9885 74.3045 37.5577 73.823 36.4679C73.6709 36.1131 71.1873 34.694 66.6257 32.3118C62.799 30.3097 59.6312 28.5864 59.6058 28.4597C59.5805 28.3583 62.6216 26.6857 66.3723 24.7344C70.1229 22.8083 73.3921 21.009 73.6202 20.7556C73.975 20.3755 74.0257 20.0967 73.823 19.5645C73.5695 18.8549 72.5558 18.2467 64.2942 14.0399C61.101 12.4179 60.4928 12.1899 59.9353 12.4179C59.2257 12.6714 58.8456 13.6597 59.2257 14.344C59.3524 14.572 61.5825 15.8645 64.1675 17.2077C66.7777 18.5762 68.9572 19.7419 69.0332 19.8179C69.236 20.0207 68.3997 20.4768 51.4962 29.2707L36.975 36.7974L29.0682 32.6666C24.7093 30.4111 17.5373 26.6857 13.1531 24.4049C8.76884 22.1241 5.06884 20.1474 4.96747 20.046C4.84076 19.9193 8.43939 17.9173 12.9503 15.5857C17.4613 13.2542 21.9469 10.8974 22.9099 10.3905C23.8983 9.85835 27.0914 8.21109 30.0058 6.71588C32.9456 5.22068 35.6825 3.77616 36.1387 3.49739L36.9497 3.01588L38.2928 3.75082C42.6264 6.13301 48.6325 9.12342 49.0634 9.12342C50.2545 9.12342 50.812 7.45081 49.8997 6.6652C49.2154 6.08232 37.4312 0.0001297 36.975 0.0001297C36.7723 0.0001297 34.9983 0.836433 33.0469 1.85013ZM20.8065 31.6529L23.5435 33.0974L20.4264 34.7193C18.7284 35.6063 15.7634 37.1522 13.812 38.1659L10.3147 39.9905L7.5524 38.546C6.03186 37.7604 4.79008 37.0762 4.79008 37.0001C4.79008 36.8227 17.512 30.183 17.8414 30.183C17.9935 30.183 19.3113 30.8419 20.8065 31.6529ZM58.364 31.2727L60.3661 32.3625L55.8298 34.7193C53.3209 36.0118 50.736 37.3803 50.0264 37.7604C49.3421 38.1405 44.0962 40.8775 38.4195 43.8426L28.0798 49.2152L25.3682 47.8214C23.873 47.0357 22.6819 46.3262 22.6819 46.2248C22.7072 46.0981 25.6216 44.5015 29.1442 42.6768C34.0606 40.1172 35.6572 39.3823 35.9867 39.5597C36.2401 39.6864 36.6962 39.7878 37.0257 39.7625C37.3551 39.7625 41.7141 37.6083 46.7319 34.9727C51.7497 32.3371 55.9819 30.183 56.1086 30.183C56.2606 30.183 57.249 30.6645 58.364 31.2727ZM66.4483 35.4796C67.9435 36.2399 69.1599 36.9241 69.1599 37.0001C69.1599 37.1775 37.3045 53.7262 36.9497 53.7262C36.6456 53.7262 31.3997 50.9892 31.3997 50.8371C31.3997 50.7864 36.2147 48.2268 42.1195 45.1604C53.7264 39.1035 57.0209 37.3803 60.9236 35.3022C62.3175 34.5672 63.5339 33.9844 63.6099 34.0351C63.686 34.0604 64.9784 34.7193 66.4483 35.4796ZM32.1599 37.7097C32.1599 37.8111 29.2202 39.4077 25.6469 41.2577L19.1593 44.6029L16.4223 43.1583C14.9017 42.3727 13.6599 41.6378 13.6599 41.5618C13.6599 41.4857 16.5997 39.9399 20.173 38.0899L26.686 34.77L29.423 36.1385C30.9182 36.8988 32.1599 37.6083 32.1599 37.7097ZM28.9921 52.9659C33.0469 55.0946 36.6202 56.8179 36.975 56.8179C37.3298 56.8179 41.7647 54.6638 46.8586 52.0029L56.0832 47.1625L61.3038 49.8488C66.8284 52.6871 69.1599 53.9542 69.1599 54.1063C69.1599 54.157 66.8031 55.4241 63.914 56.9193C60.9997 58.4145 57.8572 60.0618 56.8688 60.5686C55.9058 61.1008 51.9524 63.1536 48.1257 65.1303C44.299 67.107 40.2188 69.2357 39.0784 69.844L36.975 70.959L35.6572 70.2241C34.9223 69.844 32.5401 68.6022 30.386 67.4871C26.9394 65.6878 22.0736 63.1789 8.46473 56.1083C6.51336 55.0946 4.94213 54.157 4.94213 54.0556C4.96747 53.9542 7.85651 52.3577 11.3791 50.5077L17.7908 47.1625L19.7168 48.1508C20.7812 48.683 24.9627 50.8625 28.9921 52.9659Z" />
		<path
			d="M53.7527 9.68099C52.9925 10.4413 53.6767 12.1646 54.7411 12.1646C55.3493 12.1646 56.2363 11.3029 56.2363 10.6947C56.2363 9.65565 54.4877 8.94606 53.7527 9.68099Z" />
	</symbol>
</svg>